<svg width="48" height="48" fill="none" xmlns="http://www.w3.org/2000/svg"><path d="m22 12-1.83-1.83A4 4 0 0 0 17.34 9H5.5A2.48 2.48 0 0 0 3 11.5v25A2.5 2.5 0 0 0 5.5 39h37a2.48 2.48 0 0 0 2.5-2.5v-22a2.5 2.5 0 0 0-2.5-2.5H22z" fill="#FFB900"/><path d="m22 12-2 2a3.5 3.5 0 0 1-2.48 1H3v21.5A2.5 2.5 0 0 0 5.5 39h37a2.48 2.48 0 0 0 2.5-2.5v-22a2.5 2.5 0 0 0-2.5-2.5H22z" fill="#FFD75E"/><path style="mix-blend-mode:multiply" d="m22 12-1.83 1.83A3.999 3.999 0 0 1 17.34 15H3v21.5A2.5 2.5 0 0 0 5.5 39h37a2.48 2.48 0 0 0 2.5-2.5v-22a2.5 2.5 0 0 0-2.5-2.5H22z" fill="url(#a)"/><path opacity=".4" d="m22 12-1.83 1.83A3.999 3.999 0 0 1 17.34 15H3v1h14.64a4.491 4.491 0 0 0 3.18-1.32L23.5 12H22z" fill="#fff"/><path d="M5 38a3 3 0 0 1-1.84-.65A2.49 2.49 0 0 0 5.5 39h37a2.49 2.49 0 0 0 2.34-1.65A3 3 0 0 1 43 38H5z" fill="#BF5712"/><path d="M5 38a3 3 0 0 1-1.84-.65A2.49 2.49 0 0 0 5.5 39h37a2.49 2.49 0 0 0 2.34-1.65A3 3 0 0 1 43 38H5zM32.5 27.994a2.502 2.502 0 0 0 2.31-1.541 2.495 2.495 0 0 0-1.822-3.405A2.502 2.502 0 0 0 30 25.498a2.496 2.496 0 0 0 2.5 2.496zm0-3.995a1.5 1.5 0 0 1 1.471 1.79 1.499 1.499 0 0 1-2.718.54A1.497 1.497 0 0 1 32.5 24zM38 27.994a2.001 2.001 0 0 0 1.962-2.387 1.997 1.997 0 0 0-1.572-1.57 2.003 2.003 0 0 0-2.053.85A1.996 1.996 0 0 0 38 27.994zm0-2.996a1.001 1.001 0 0 1 .98 1.193.998.998 0 0 1-1.363.728 1 1 0 0 1-.324-1.629 1 1 0 0 1 .707-.292zM35.14 28.993h-5.31A1.801 1.801 0 0 0 28 30.741v.999c.042.776.37 1.509.92 2.058a4.842 4.842 0 0 0 3.56 1.188c4.43 0 4.52-3.226 4.52-3.256v-.999a1.794 1.794 0 0 0-1.166-1.624 1.802 1.802 0 0 0-.694-.114zM36 31.72c0 .1-.08 2.267-3.49 2.267S29 31.82 29 31.73v-.999a.788.788 0 0 1 .83-.749h5.31a.8.8 0 0 1 .83.75l.03.988zM39.66 28.993H37.3c.252.29.44.63.55.999h1.81c.19 0 .34.12.34.25v.589c0 .16-.1 1.159-2 1.159a3.874 3.874 0 0 1-.25.999H38c3 0 3-2.148 3-2.168v-.6a1.298 1.298 0 0 0-1.34-1.228z" fill="#BF5712"/><defs><linearGradient id="a" x1="24" y1="12" x2="24" y2="39" gradientUnits="userSpaceOnUse"><stop stop-color="#fff" stop-opacity="0"/><stop offset="1" stop-color="#FFD75E" stop-opacity=".3"/></linearGradient></defs></svg>